<?xml version="1.0" encoding="iso-8859-1"?>
<!-- Generator: Adobe Illustrator 19.0.0, SVG Export Plug-In . SVG Version: 6.00 Build 0)  -->
<svg version="1.1" id="Layer_1" xmlns="http://www.w3.org/2000/svg" xmlns:xlink="http://www.w3.org/1999/xlink" x="0px" y="0px"
	 viewBox="0 0 505.709 505.709" style="enable-background:new 0 0 505.709 505.709;" xml:space="preserve">
<g>
	<g>
		<path d="M427.554,71.862c-99.206-95.816-256.486-95.816-355.692,0c-98.222,101.697-95.405,263.762,6.292,361.984
			c99.206,95.816,256.486,95.816,355.692,0C532.068,332.15,529.251,170.084,427.554,71.862z M421.814,421.814l-0.085-0.085
			c-93.352,93.267-244.636,93.198-337.903-0.154S-9.372,176.94,83.98,83.673s244.636-93.198,337.903,0.153
			c44.799,44.84,69.946,105.643,69.905,169.028C491.792,316.225,466.622,377.002,421.814,421.814z"/>
	</g>
</g>
<g>
	<g>
		<path d="M396.641,325.729l-47.957-47.787c-10.884-10.91-28.552-10.931-39.462-0.047c-0.016,0.016-0.031,0.031-0.047,0.047
			l-27.477,27.477c-2.079,2.084-5.355,2.372-7.765,0.683c-15.039-10.51-29.117-22.333-42.069-35.328
			c-11.6-11.574-22.271-24.042-31.915-37.291c-1.748-2.38-1.494-5.68,0.597-7.765l28.16-28.16c10.872-10.893,10.872-28.531,0-39.424
			l-47.957-47.957c-11.051-10.565-28.458-10.565-39.509,0l-15.189,15.189c-22.939,22.681-31.128,56.359-21.163,87.04
			c7.436,22.447,17.947,43.755,31.232,63.317c11.96,17.934,25.681,34.628,40.96,49.835c16.611,16.73,35.011,31.581,54.869,44.288
			c21.83,14.245,45.799,24.904,70.997,31.573c6.478,1.597,13.126,2.399,19.797,2.389c22.871-0.14,44.752-9.346,60.843-25.6
			l13.056-13.056C407.513,354.26,407.513,336.622,396.641,325.729z M384.557,353.514c-0.011,0.011-0.022,0.023-0.034,0.034
			l0.085-0.256l-13.056,13.056c-16.775,16.987-41.206,23.976-64.427,18.432c-23.395-6.262-45.635-16.23-65.877-29.525
			c-18.806-12.019-36.234-26.069-51.968-41.899c-14.477-14.371-27.483-30.151-38.827-47.104
			c-12.408-18.242-22.229-38.114-29.184-59.051c-7.973-24.596-1.366-51.585,17.067-69.717l15.189-15.189
			c4.223-4.242,11.085-4.257,15.326-0.034c0.011,0.011,0.023,0.022,0.034,0.034l47.957,47.957
			c4.242,4.223,4.257,11.085,0.034,15.326c-0.011,0.011-0.022,0.022-0.034,0.034l-28.16,28.16
			c-8.08,7.992-9.096,20.692-2.389,29.867c10.185,13.978,21.456,27.131,33.707,39.339c13.659,13.718,28.508,26.197,44.373,37.291
			c9.167,6.394,21.595,5.316,29.525-2.56l27.221-27.648c4.223-4.242,11.085-4.257,15.326-0.034c0.011,0.011,0.022,0.022,0.034,0.034
			l48.043,48.128C388.765,342.411,388.78,349.272,384.557,353.514z"/>
	</g>
</g>
<g>
</g>
<g>
</g>
<g>
</g>
<g>
</g>
<g>
</g>
<g>
</g>
<g>
</g>
<g>
</g>
<g>
</g>
<g>
</g>
<g>
</g>
<g>
</g>
<g>
</g>
<g>
</g>
<g>
</g>
</svg>
